<?xml version="1.0" encoding="UTF-8"?>
<svg id="Ebene_1" data-name="Ebene 1" xmlns="http://www.w3.org/2000/svg"
  xmlns:xlink="http://www.w3.org/1999/xlink" version="1.1" viewBox="0 0 83.8 40.7">
  <defs>
    <style>
      .cls-1 {
      fill: #585948;
      stroke-width: 0px;
      }

      .cls-2 {
      font-size: 3.5px;
      }

      .cls-2, .cls-3 {
      fill: #7D7F67;
      font-family: AvenirNext-Regular, 'Avenir Next';
      }

      .cls-3 {
      font-size: 7px;
      }
    </style>
    <path id="path"
      d="M-709.3,149.6h-122.2V53.8c0-1-.1-2-.1-3.1,0-29.2,27.4-53,61.2-53s60.3,23,61.1,51.6c0,33.4,0,66.8,0,100.2Z" />
    <path id="path-2"
      d="M-1008,261.8c.2-38.6,31.7-69.6,70.3-69.4s69.6,31.7,69.4,70.3-31.7,69.6-70.3,69.4-69.6-31.7-69.4-70.3Z" />
    <path id="path-3"
      d="M-624.8,321.2c-37.8-7.6-62.3-44.5-54.6-82.3,7.6-37.8,44.5-62.3,82.3-54.6,37.8,7.6,62.3,44.5,54.6,82.3-7.6,37.8-44.5,62.3-82.3,54.6Z" />
    <path id="path-4"
      d="M-236.6,412.3c-18.9-3.8-31.1-22.2-27.3-41.1,3.8-18.9,22.2-31.1,41.1-27.3,18.9,3.8,31.1,22.2,27.3,41.1-3.8,18.9-22.2,31.1-41.1,27.3Z" />
  </defs>
  <text>
    <textPath startOffset="10507.5%" xlink:href="#path">
      <tspan class="cls-3">
        <tspan x="0" y="0">NATIVES OLIVENÖL</tspan>
      </tspan>
    </textPath>
  </text>
  <text>
    <textPath startOffset="7217%" xlink:href="#path-2">
      <tspan class="cls-3">
        <tspan x="0" y="0">NATIVES OLIVENÖL</tspan>
      </tspan>
    </textPath>
  </text>
  <text>
    <textPath startOffset="7217%" xlink:href="#path-3">
      <tspan class="cls-3">
        <tspan x="0" y="0">NATIVES OLIVENÖL</tspan>
      </tspan>
    </textPath>
  </text>
  <text>
    <textPath startOffset="7217%" xlink:href="#path-4">
      <tspan class="cls-2">
        <tspan x="0" y="0">NATIVES OLIVENÖL</tspan>
      </tspan>
    </textPath>
  </text>
  <g>
    <path class="cls-1"
      d="M5.6,29.4l13.4-20h-6.2c-3.1,0-4.7,1.1-6.2,4.7h-.4c0,0,.9-5.4.9-5.4h16.2v.5l-13.3,20h7c3.2,0,5.7-1.5,6.3-5.6h.4v6.2H5.6v-.5Z" />
    <path class="cls-1"
      d="M23,24.1c-3-6.4.5-12.6,6.7-14.8s10.3,0,12.1,3.7l-17.2,6.3c.2.6.4,1.2.7,1.8,2.5,5.3,7.9,7.6,13.7,5.6,3.4-1.2,5.2-3.5,6.3-6.2l.6.2c-1,3.5-3.1,7.6-7.9,9.3-4.8,1.8-11.9.7-14.9-5.8ZM38,13.7c-1.7-2.5-5.5-4.7-9.5-3.2-3.8,1.3-4.9,4.6-4.1,8.1l13.6-4.9Z" />
    <path class="cls-1"
      d="M39.4,37c0-.8,1.2-2.3,3-2.3s3.8.6,6,1c1.7-1.3,3.1-3.3,4.3-5.5l-7.8-16.2c-1.5-3.2-2.7-4-3.7-4.4v-.5h7.2v.5c-1.4.4-1,1.2.5,4.4l5.9,12.1,5.9-12.1c1.3-2.7,1.2-4.1-.4-4.4v-.5h5.3v.5c-1.3.4-2.6,1.2-4.1,4.4l-7.4,15.1c-4.1,8.3-8.2,9.1-11.3,9.2-1.9,0-3.2-.5-3.2-1.2Z" />
    <path class="cls-1"
      d="M68.1,24.5v-14.9h-3.1v-.6l6.1-5.2h.7v5.2h7.2l-.2.6h-7v14.9c0,2.9,1.3,4,3.4,4s3-.5,4.6-2.2l.4.4c-2,2.1-4.5,3.9-7.3,3.9s-4.8-1.6-4.8-6Z" />
  </g>
</svg>